<svg xmlns="http://www.w3.org/2000/svg" width="1920" height="1232" viewBox="0 0 1920 1232">
  <defs>
    <style>
      .cls-1 {
        fill: #f2f2f2;
        fill-rule: evenodd;
      }
    </style>
  </defs>
  <path id="wave" class="cls-1" d="M1997.14,152H-202q0,11.607.035,23.185t0.1,23.121q0.14,23.082.411,45.994,0.537,45.8,1.533,90.646c1.305,59.7,3.13,117.766,5.206,173.121,4.095,111.468,9.193,212.1,11.747,311.63,2.842,95.745,3.773,182.064,4.091,204.934,0.173,11.25.254,5.84,0.189-20.14-0.1-25.52-.347-71.6-1.625-131.22,91.924,85.223,181.6,156.87,271.425,201.84,89.738,45.88,179.628,65.04,269.95,66.33,180.728,0.78,362.7-61.73,543.367-86.27,180.826-26.94,362.236-35.85,544.786,34.21,91.22,34.46,182.56,91.92,274.02,159.16,45.74,32.97,91.52,67.51,137.44,94.72,45.92,26.79,91.97,46.26,138.33,39.33-0.62-37.31-.99-114.46-1.24-206.98-0.25-93.1-.39-201.56-0.47-314.789-0.17-227.653-.16-470.47-0.16-708.822h0Z" transform="translate(0 -152)"/>
</svg>
